# xmcd
#
# Track frame offsets:
#	150
#	24044
#	45467
#	75861
#	98326
#	141337
#	178536
#	210578
#	253468
#	279433
#	314909
#
# Disc length: 4592 seconds
#
# Revision: 1
# Processed by: cddbd v1.5.2PL0 Copyright (c) Steve Scherf et al.
# Submitted via: audiograbber 1.83.01
#
DISCID=8c11ee0b
DTITLE=Grateful Dead - 82-07-31 Manor Downs, Austin TX
DYEAR=1900
DGENRE=
TTITLE0=Alabama Getaway
TTITLE1=Promised Land
TTITLE2=Candyman
TTITLE3=El Paso
TTITLE4=Bird Song
TTITLE5=Little Red Rooster
TTITLE6=Ramble On Rose
TTITLE7=It's All Over Now
TTITLE8=Brown Eyed Women
TTITLE9=The Music Never Stopped
TTITLE10=Deal
EXTD=
EXTT0=
EXTT1=
EXTT2=
EXTT3=
EXTT4=
EXTT5=
EXTT6=
EXTT7=
EXTT8=
EXTT9=
EXTT10=
PLAYORDER=
